
<svg xmlns="http://www.w3.org/2000/svg" version="1.1" xmlns:xlink="http://www.w3.org/1999/xlink" preserveAspectRatio="none" x="0px" y="0px" width="27px" height="74px" viewBox="0 0 27 74">
<defs>
<g id="Layer0_0_FILL">
<path fill="#798BFF" stroke="none" d="
M 27.9 34.85
Q 27.9 33.75 27.8 32.7 27.75 32.1 27.5 31.6 26.6 29.85 25.35 28.5
L 21.85 39.6 27.1 45.55
Q 27.2 45.15 27.25 44.7 27.5 42.8 27.65 40.85 27.8 38.9 27.85 36.95 27.9 35.9 27.9 34.85
M 7.85 40.35
L 9.05 42.45 18.75 42.5 20.1 40.3 7.85 40.35
M 2.45 28.5
Q 1.5 29.6 1.05 30.2 0.25 31.25 0.25 32.2 -0.45 37.85 0.8 45.9 3 43.4 6 39.6 4.65 36 2.45 28.5
M 13.95 0
Q 4.5 8.5 3.15 18.3 2.3 23 3.75 29 4.1 30.45 5.75 35.55 5.95 36.2 6.25 36.95 6.6 38.05 7 39.3 9.35 39.3 14.05 39.3 18.25 39.25 21.05 39.15 23.9 29.9 24.4 27.55 25.75 20.8 24.15 15.6 22.35 7.75 13.95 0
M 8.55 22.15
Q 7.95 19.9 8.8 17.8 9.6 15.65 11.75 14.75 12.15 14.6 12.6 14.5 15.1 13.85 17.25 15.4 19.05 16.8 19.65 19.05 19.95 20.1 19.75 21.3 19.4 23.7 17.45 24.95 15.65 26.2 13.4 26.1 11.1 25.7 9.6 24.05 8.8 23.15 8.55 22.15 Z"/>

<path fill="#FF6600" stroke="none" d="
M 18.8 43.95
Q 15.35 43.25 8.9 43.75 6.85 55.85 6.4 59
L 11.3 59.45
Q 11.25 61.75 10.95 66.3 10.75 70.35 10.95 73.1 13.25 69.35 15.65 63.85 18.35 57.45 19.7 54.3
L 15.35 53.85
Q 18.05 45.95 18.8 43.95 Z"/>
</g>

<path id="Layer0_0_1_STROKES" stroke="#4A60EE" stroke-width="0.05" stroke-linejoin="miter" stroke-linecap="butt" stroke-miterlimit="4" fill="none" d="
M 11.75 14.75
Q 9.6 15.65 8.8 17.8 7.95 19.9 8.55 22.15 8.8 23.15 9.6 24.05 11.1 25.7 13.4 26.1 15.65 26.2 17.45 24.95 19.4 23.7 19.75 21.3 19.95 20.1 19.65 19.05 19.05 16.8 17.25 15.4 15.1 13.85 12.6 14.5 12.15 14.6 11.75 14.75 Z
M 13.95 0
Q 22.35 7.75 24.15 15.6 25.75 20.8 24.4 27.55 23.9 29.9 21.05 39.15 18.25 39.25 14.05 39.3 9.35 39.3 7 39.3 6.6 38.05 6.25 36.95 5.95 36.2 5.75 35.55 4.1 30.45 3.75 29 2.3 23 3.15 18.3 4.5 8.5 13.95 0 Z
M 0.25 32.2
Q 0.25 31.25 1.05 30.2 1.5 29.6 2.45 28.5 4.65 36 6 39.6 3 43.4 0.8 45.9 -0.45 37.85 0.25 32.2 Z
M 7.85 40.35
L 20.1 40.3 18.75 42.5 9.05 42.45 7.85 40.35 Z
M 25.35 28.5
Q 26.6 29.85 27.5 31.6 27.75 32.1 27.8 32.7 27.9 33.75 27.9 34.85 27.9 35.9 27.85 36.95 27.8 38.9 27.65 40.85 27.5 42.8 27.25 44.7 27.2 45.15 27.1 45.55
L 21.85 39.6 25.35 28.5 Z"/>

<path id="Layer0_0_2_STROKES" stroke="#FF802B" stroke-width="0.05" stroke-linejoin="miter" stroke-linecap="butt" stroke-miterlimit="4" fill="none" d="
M 8.9 43.75
Q 15.35 43.25 18.8 43.95 18.05 45.95 15.35 53.85
L 19.7 54.3
Q 18.35 57.45 15.65 63.85 13.25 69.35 10.95 73.1 10.75 70.35 10.95 66.3 11.25 61.75 11.3 59.45
L 6.4 59
Q 6.85 55.85 8.9 43.75 Z"/>
</defs>

<g transform="matrix( 1, 0, 0, 1, 0,0) ">
<use xlink:href="#Layer0_0_FILL"/>

<use xlink:href="#Layer0_0_1_STROKES"/>

<use xlink:href="#Layer0_0_2_STROKES"/>
</g>
</svg>
